<?xml version="1.0" ?><svg enable-background="new 0 0 64 64" id="Filled_Outline_1_" version="1.1" viewBox="0 0 64 64" xml:space="preserve" xmlns="http://www.w3.org/2000/svg" xmlns:xlink="http://www.w3.org/1999/xlink"><title/><desc/><g><g><path d="M37.32,8.84C36.04,10.77,34.13,12,32,12s-4.04-1.23-5.32-3.16C27.18,8,27.8,7.2,28.51,6.49L32,3l3.49,3.49    C36.2,7.2,36.82,8,37.32,8.84z" fill="#009245"/><path d="M53,7v4c0,5.52-4.48,10-10,10H21c-5.52,0-10-4.48-10-10V7h6c3.56,0,6.69,1.87,8.46,4.68    c0.55-1.94,1.59-3.73,3.05-5.19L32,3l3.49,3.49c1.46,1.46,2.5,3.25,3.05,5.19C40.31,8.87,43.44,7,47,7H53z" fill="#009245"/><path d="M54,32c0-1.966-0.791-3.705-2.008-4.799C51.993,27.133,52,27.068,52,27c0-3.314-2.239-6-5-6    c0-3.314-2.239-6-5-6s-5,2.686-5,6c0-3.314-2.239-6-5-6s-5,2.686-5,6c0-3.314-2.239-6-5-6s-5,2.686-5,6c-2.761,0-5,2.686-5,6    c0,0.068,0.007,0.133,0.008,0.201C10.791,28.295,10,30.034,10,32c0,2.11,0.909,3.961,2.281,5.031C12.102,37.649,12,38.309,12,39    c0,3.314,2.239,6,5,6c0,3.314,2.239,6,5,6c0,3.314,2.239,6,5,6c0.096,0,0.19-0.011,0.285-0.017C27.968,59.321,29.818,61,32,61    s4.032-1.679,4.715-4.017C36.81,56.989,36.904,57,37,57c2.761,0,5-2.686,5-6c2.761,0,5-2.686,5-6c2.761,0,5-2.686,5-6    c0-0.691-0.102-1.351-0.281-1.969C53.091,35.961,54,34.11,54,32z" fill="#EB2335"/><path d="M37.32,8.84C36.04,10.77,34.13,12,32,12s-4.04-1.23-5.32-3.16C27.18,8,27.8,7.2,28.51,6.49L32,3l3.49,3.49    C36.2,7.2,36.82,8,37.32,8.84z M17.79,8.7C17.07,7.98,16.28,7.4,15.5,7H11v4c0,0.17,0,0.34,0.01,0.51v0.01    c0.4,0.78,0.97,1.56,1.69,2.27c2.34,2.34,5.38,3.1,6.79,1.7C20.89,14.08,20.13,11.04,17.79,8.7z M44.51,15.49    c1.41,1.4,4.45,0.64,6.79-1.7c0.72-0.71,1.29-1.49,1.69-2.27v-0.01C53,11.34,53,11.17,53,11V7h-4.5c-0.78,0.4-1.57,0.98-2.29,1.7    C43.87,11.04,43.11,14.08,44.51,15.49z" fill="#39B54A"/><path d="M22,32c-1.473,0-2.667-0.895-2.667-2s1.194-2,2.667-2s2.667,0.895,2.667,2S23.473,32,22,32z M34.667,30    c0-1.105-1.194-2-2.667-2s-2.667,0.895-2.667,2s1.194,2,2.667,2S34.667,31.105,34.667,30z M44.667,30c0-1.105-1.194-2-2.667-2    s-2.667,0.895-2.667,2s1.194,2,2.667,2S44.667,31.105,44.667,30z M51.667,29c0-1.105-1.194-2-2.667-2s-2.667,0.895-2.667,2    s1.194,2,2.667,2S51.667,30.105,51.667,29z M17.667,29c0-1.105-1.194-2-2.667-2s-2.667,0.895-2.667,2s1.194,2,2.667,2    S17.667,30.105,17.667,29z M19,23c0-0.552-0.895-1-2-1s-2,0.448-2,1s0.895,1,2,1S19,23.552,19,23z M24,17c0-0.552-0.895-1-2-1    s-2,0.448-2,1s0.895,1,2,1S24,17.552,24,17z M34,17c0-0.552-0.895-1-2-1c-1.105,0-2,0.448-2,1s0.895,1,2,1    C33.105,18,34,17.552,34,17z M44,17c0-0.552-0.895-1-2-1s-2,0.448-2,1s0.895,1,2,1S44,17.552,44,17z M29,23c0-0.552-0.895-1-2-1    s-2,0.448-2,1s0.895,1,2,1S29,23.552,29,23z M39,23c0-0.552-0.895-1-2-1s-2,0.448-2,1s0.895,1,2,1S39,23.552,39,23z M49,23    c0-0.552-0.895-1-2-1s-2,0.448-2,1s0.895,1,2,1S49,23.552,49,23z" fill="#FF6F77"/><path d="M27,33c0,3.31-2.24,6-5,6s-5-2.69-5-6c0-0.52,0.05-1.02,0.16-1.5C17.71,34.08,19.67,36,22,36    s4.29-1.92,4.84-4.5C26.95,31.98,27,32.48,27,33z M21.35,38.95C20.5,40.77,18.87,42,17,42c-2.33,0-4.29-1.92-4.84-4.5    C12.05,37.98,12,38.48,12,39c0,3.31,2.24,6,5,6s5-2.69,5-6C21.78,39,21.56,38.98,21.35,38.95z M31.35,38.95    C30.5,40.77,28.87,42,27,42s-3.5-1.23-4.35-3.05C22.44,38.98,22.22,39,22,39c0,3.31,2.24,6,5,6s5-2.69,5-6    C31.78,39,31.56,38.98,31.35,38.95z M41.35,38.95C40.5,40.77,38.87,42,37,42s-3.5-1.23-4.35-3.05C32.44,38.98,32.22,39,32,39    c0,3.31,2.24,6,5,6s5-2.69,5-6C41.78,39,41.56,38.98,41.35,38.95z M51.84,37.5C51.29,40.08,49.33,42,47,42    c-1.87,0-3.5-1.23-4.35-3.05C42.44,38.98,42.22,39,42,39c0,3.31,2.24,6,5,6s5-2.69,5-6C52,38.48,51.95,37.98,51.84,37.5z     M46.35,44.95C45.5,46.77,43.87,48,42,48s-3.5-1.23-4.35-3.05C37.44,44.98,37.22,45,37,45c0,3.31,2.24,6,5,6s5-2.69,5-6    C46.78,45,46.56,44.98,46.35,44.95z M36.35,44.95C35.5,46.77,33.87,48,32,48s-3.5-1.23-4.35-3.05C27.44,44.98,27.22,45,27,45    c0,3.31,2.24,6,5,6s5-2.69,5-6C36.78,45,36.56,44.98,36.35,44.95z M26.35,44.95C25.5,46.77,23.87,48,22,48s-3.5-1.23-4.35-3.05    C17.44,44.98,17.22,45,17,45c0,3.31,2.24,6,5,6s5-2.69,5-6C26.78,45,26.56,44.98,26.35,44.95z M31.35,50.95    C30.5,52.77,28.87,54,27,54s-3.5-1.23-4.35-3.05C22.44,50.98,22.22,51,22,51c0,3.31,2.24,6,5,6s5-2.69,5-6    C31.78,51,31.56,50.98,31.35,50.95z M41.35,50.95C40.5,52.77,38.87,54,37,54s-3.5-1.23-4.35-3.05C32.44,50.98,32.22,51,32,51    c0,3.31,2.24,6,5,6s5-2.69,5-6C41.78,51,41.56,50.98,41.35,50.95z M35.21,56.6C34.34,57.47,33.22,58,32,58s-2.34-0.53-3.21-1.4    c-0.47,0.22-0.98,0.36-1.51,0.38C27.96,59.32,29.82,61,32,61s4.04-1.68,4.72-4.02C36.19,56.96,35.68,56.82,35.21,56.6z     M17.14,34.42C16.49,34.79,15.76,35,15,35c-2.33,0-4.29-1.92-4.84-4.5C10.05,30.98,10,31.48,10,32c0,3.31,2.24,6,5,6    c1.16,0,2.23-0.48,3.08-1.28C17.64,36.05,17.31,35.27,17.14,34.42z M36.84,31.5C36.29,34.08,34.33,36,32,36s-4.29-1.92-4.84-4.5    C27.05,31.98,27,32.48,27,33c0,3.31,2.24,6,5,6s5-2.69,5-6C37,32.48,36.95,31.98,36.84,31.5z M46.84,31.5    C46.29,34.08,44.33,36,42,36s-4.29-1.92-4.84-4.5C37.05,31.98,37,32.48,37,33c0,3.31,2.24,6,5,6s5-2.69,5-6    C47,32.48,46.95,31.98,46.84,31.5z M53.84,30.5C53.29,33.08,51.33,35,49,35c-0.76,0-1.49-0.21-2.14-0.58    c-0.17,0.85-0.5,1.63-0.94,2.3C46.77,37.52,47.84,38,49,38c2.76,0,5-2.69,5-6C54,31.48,53.95,30.98,53.84,30.5z M26.33,18    c-0.87,1.79-2.48,3-4.33,3s-3.46-1.21-4.33-3C17.24,18.88,17,19.9,17,21c2.76,0,5,2.69,5,6c0-3.31,2.24-6,5-6    C27,19.9,26.76,18.88,26.33,18z M36.33,18c-0.87,1.79-2.48,3-4.33,3s-3.46-1.21-4.33-3C27.24,18.88,27,19.9,27,21    c2.76,0,5,2.69,5,6c0-3.31,2.24-6,5-6C37,19.9,36.76,18.88,36.33,18z M46.33,18c-0.87,1.79-2.48,3-4.33,3s-3.46-1.21-4.33-3    C37.24,18.88,37,19.9,37,21c2.76,0,5,2.69,5,6c0-3.31,2.24-6,5-6C47,19.9,46.76,18.88,46.33,18z M31.33,24    c-0.87,1.79-2.48,3-4.33,3s-3.46-1.21-4.33-3C22.24,24.88,22,25.9,22,27c2.76,0,5,2.69,5,6c0-3.31,2.24-6,5-6    C32,25.9,31.76,24.88,31.33,24z M41.33,24c-0.87,1.79-2.48,3-4.33,3s-3.46-1.21-4.33-3C32.24,24.88,32,25.9,32,27    c2.76,0,5,2.69,5,6c0-3.31,2.24-6,5-6C42,25.9,41.76,24.88,41.33,24z M21.47,24.32C20.57,25.36,19.34,26,18,26    c-1.96,0-3.65-1.35-4.47-3.32C12.59,23.77,12,25.3,12,27c0,0.07,0,0.14,0.01,0.2C12.84,26.44,13.88,26,15,26    c1.59,0,3.01,0.89,3.92,2.28C19.77,27.48,20.84,27,22,27C22,26.03,21.81,25.12,21.47,24.32z M42,27c1.16,0,2.23,0.48,3.08,1.28    C45.99,26.89,47.41,26,49,26c1.12,0,2.16,0.44,2.99,1.2C52,27.14,52,27.07,52,27c0-1.7-0.59-3.23-1.53-4.32    C49.65,24.65,47.96,26,46,26c-1.34,0-2.57-0.64-3.47-1.68C42.19,25.12,42,26.03,42,27z" fill="#B01E3C"/></g><path d="M13.3,18.853C11.172,16.768,10,13.979,10,11V7c0-0.553,0.447-1,1-1h6c3.152,0,6.085,1.325,8.151,3.619   c0.643-1.422,1.541-2.726,2.651-3.836l3.49-3.49c0.391-0.391,1.023-0.391,1.414,0l3.49,3.49c1.11,1.11,2.009,2.414,2.651,3.836   C40.915,7.325,43.848,6,47,6h6c0.553,0,1,0.447,1,1v4c0,2.979-1.172,5.768-3.3,7.853l-1.4-1.428C51.041,15.719,52,13.437,52,11V8   h-5c-3.106,0-5.952,1.575-7.614,4.213c-0.21,0.334-0.595,0.514-0.988,0.457c-0.391-0.057-0.712-0.338-0.819-0.718   c-0.508-1.789-1.474-3.434-2.795-4.755L32,4.414l-2.783,2.783c-1.321,1.321-2.287,2.966-2.795,4.755   c-0.107,0.38-0.429,0.661-0.819,0.718c-0.396,0.059-0.778-0.123-0.988-0.457C22.952,9.575,20.106,8,17,8h-5v3   c0,2.437,0.959,4.719,2.7,6.425L13.3,18.853z M52.821,37.392C52.927,37.919,53,38.454,53,39c0,3.484-2.195,6.374-5.056,6.905   c-0.342,3.07-2.392,5.516-5,6c-0.365,3.274-2.672,5.84-5.527,6.071C36.438,60.405,34.344,62,32,62s-4.438-1.595-5.417-4.025   c-2.855-0.231-5.163-2.797-5.527-6.071c-2.608-0.484-4.658-2.93-5-6C13.195,45.374,11,42.484,11,39   c0-0.546,0.073-1.081,0.179-1.608C9.849,36.107,9,34.167,9,32c0-2.071,0.78-3.93,2.009-5.212c0.088-3.388,2.245-6.172,5.047-6.692   C16.438,16.663,18.955,14,22,14c2.086,0,3.924,1.25,5,3.139C28.076,15.25,29.914,14,32,14s3.924,1.25,5,3.139   C38.076,15.25,39.914,14,42,14c3.045,0,5.562,2.663,5.944,6.095c2.802,0.52,4.959,3.304,5.047,6.692C54.22,28.07,55,29.929,55,32   C55,34.167,54.151,36.107,52.821,37.392z M53,32c0-2.757-1.794-5-4-5c-0.976,0-1.895,0.445-2.618,1.234   C47.382,29.485,48,31.158,48,33c0,1.261-0.292,2.443-0.794,3.466C47.76,36.817,48.37,37,49,37C51.206,37,53,34.757,53,32z    M35.929,45.882c-1.635-0.346-3.042-1.463-3.929-3.021c-0.887,1.558-2.293,2.675-3.929,3.021C28.406,48.218,30.036,50,32,50   S35.594,48.218,35.929,45.882z M22,38c2.206,0,4-2.243,4-5s-1.794-5-4-5s-4,2.243-4,5S19.794,38,22,38z M23.071,26.118   c1.635,0.346,3.042,1.463,3.929,3.021c0.887-1.558,2.293-2.675,3.929-3.021C30.593,23.782,28.964,22,27,22   S23.407,23.782,23.071,26.118z M33.071,26.118c1.635,0.346,3.042,1.463,3.929,3.021c0.887-1.558,2.293-2.675,3.929-3.021   C40.593,23.782,38.964,22,37,22S33.407,23.782,33.071,26.118z M36,33c0-2.757-1.794-5-4-5s-4,2.243-4,5s1.794,5,4,5   S36,35.757,36,33z M23.071,39.882C23.406,42.218,25.036,44,27,44s3.594-1.782,3.929-4.118c-1.635-0.346-3.042-1.463-3.929-3.021   C26.113,38.419,24.707,39.536,23.071,39.882z M40.929,39.882c-1.635-0.346-3.042-1.463-3.929-3.021   c-0.887,1.558-2.293,2.675-3.929,3.021C33.406,42.218,35.036,44,37,44S40.594,42.218,40.929,39.882z M46,33c0-2.757-1.794-5-4-5   s-4,2.243-4,5s1.794,5,4,5S46,35.757,46,33z M47,22c-1.964,0-3.593,1.782-3.929,4.118c0.658,0.139,1.278,0.4,1.843,0.768   C46.015,25.694,47.472,25,49,25c0.608,0,1.194,0.108,1.747,0.305C50.189,23.384,48.728,22,47,22z M38.071,20.118   c1.635,0.346,3.042,1.463,3.929,3.021c0.887-1.558,2.293-2.675,3.929-3.021C45.593,17.782,43.964,16,42,16   S38.407,17.782,38.071,20.118z M28.071,20.118c1.635,0.346,3.042,1.463,3.929,3.021c0.887-1.558,2.293-2.675,3.929-3.021   C35.593,17.782,33.964,16,32,16S28.407,17.782,28.071,20.118z M18.071,20.118c1.635,0.346,3.042,1.463,3.929,3.021   c0.887-1.558,2.293-2.675,3.929-3.021C25.593,17.782,23.964,16,22,16S18.407,17.782,18.071,20.118z M13.253,25.305   C13.806,25.108,14.392,25,15,25c1.528,0,2.985,0.694,4.086,1.886c0.565-0.368,1.185-0.629,1.843-0.768   C20.593,23.782,18.964,22,17,22C15.272,22,13.811,23.384,13.253,25.305z M11,32c0,2.757,1.794,5,4,5c0.63,0,1.24-0.183,1.794-0.534   C16.292,35.443,16,34.261,16,33c0-1.842,0.618-3.515,1.618-4.766C16.895,27.445,15.976,27,15,27C12.794,27,11,29.243,11,32z M17,44   c1.964,0,3.594-1.782,3.929-4.118c-1.153-0.244-2.189-0.872-3.012-1.768C17.03,38.691,16.039,39,15,39   c-0.692,0-1.353-0.144-1.972-0.397C13.019,38.736,13,38.866,13,39C13,41.757,14.794,44,17,44z M22,50   c1.964,0,3.594-1.782,3.929-4.118c-1.635-0.346-3.042-1.463-3.929-3.021c-0.887,1.558-2.293,2.675-3.929,3.021   C18.406,48.218,20.036,50,22,50z M27,56c1.964,0,3.594-1.782,3.929-4.118c-1.635-0.346-3.042-1.463-3.929-3.021   c-0.887,1.558-2.293,2.675-3.929,3.021C23.406,54.218,25.036,56,27,56z M35.339,57.721c-1.382-0.466-2.561-1.493-3.339-2.86   c-0.778,1.367-1.957,2.395-3.339,2.86C29.391,59.112,30.638,60,32,60S34.609,59.112,35.339,57.721z M40.929,51.882   c-1.635-0.346-3.042-1.463-3.929-3.021c-0.887,1.558-2.293,2.675-3.929,3.021C33.406,54.218,35.036,56,37,56   S40.594,54.218,40.929,51.882z M45.929,45.882c-1.635-0.346-3.042-1.463-3.929-3.021c-0.887,1.558-2.293,2.675-3.929,3.021   C38.406,48.218,40.036,50,42,50S45.594,48.218,45.929,45.882z M51,39c0-0.134-0.019-0.264-0.028-0.397   C50.353,38.856,49.692,39,49,39c-1.039,0-2.03-0.309-2.916-0.886c-0.823,0.896-1.86,1.524-3.012,1.768   C43.406,42.218,45.036,44,47,44C49.206,44,51,41.757,51,39z" fill="#28284B"/></g></svg>