<?xml version="1.0" standalone="no"?>
<!DOCTYPE svg PUBLIC "-//W3C//DTD SVG 20010904//EN"
 "http://www.w3.org/TR/2001/REC-SVG-20010904/DTD/svg10.dtd">
<svg version="1.0" xmlns="http://www.w3.org/2000/svg"
 width="320.000000pt" height="320.000000pt" viewBox="0 0 320.000000 320.000000"
 preserveAspectRatio="xMidYMid meet">
<metadata>
Created by potrace 1.16, written by Peter Selinger 2001-2019
</metadata>
<g transform="translate(0.000000,320.000000) scale(0.100000,-0.100000)"
fill="#000000" stroke="none">
<path d="M0 1600 l0 -1600 1600 0 1600 0 0 1600 0 1600 -1600 0 -1600 0 0
-1600z m1725 428 c25 -19 28 -20 37 -5 5 10 21 17 38 17 40 0 59 -30 53 -81
-3 -21 -3 -39 0 -39 3 0 21 8 39 19 28 16 56 19 180 20 l147 1 29 -35 28 -35
25 26 c34 37 72 54 119 54 37 0 42 3 51 30 13 35 24 38 41 10 9 -14 24 -20 50
-20 41 0 48 -14 26 -50 -9 -14 -10 -24 -3 -34 47 -64 50 -72 50 -133 0 -49 3
-63 15 -63 8 0 33 -9 56 -19 70 -32 105 -143 58 -182 -11 -9 -13 -30 -8 -93 6
-79 5 -82 -26 -128 -42 -63 -95 -88 -186 -88 -67 0 -143 23 -158 48 -4 7 -25
1 -58 -16 -45 -23 -64 -27 -138 -27 -67 0 -92 4 -117 19 -32 20 -32 20 -76 -2
-27 -13 -63 -22 -91 -22 -39 0 -52 6 -85 36 l-40 35 -16 -25 c-35 -53 -127
-61 -178 -16 -39 33 -52 37 -64 16 -12 -22 -64 -46 -102 -46 -18 0 -50 10 -71
21 -37 21 -40 21 -73 6 -90 -43 -222 -29 -287 29 l-37 34 -57 -34 c-74 -44
-161 -59 -321 -55 -193 6 -208 27 -160 225 41 165 93 363 111 419 44 132 56
140 212 132 115 -5 188 -25 239 -63 l31 -24 31 54 c59 106 177 127 254 46 21
-22 47 -40 58 -40 10 0 24 -9 31 -20 16 -25 30 -25 52 -1 10 11 32 21 49 23
23 2 33 9 35 23 8 40 34 57 75 51 26 -4 45 -2 60 9 29 20 39 19 72 -7z"/>
<path d="M1134 1990 c-12 -5 -35 -25 -50 -46 -24 -31 -29 -49 -32 -110 -4 -68
-2 -75 23 -100 24 -24 31 -26 80 -20 32 4 56 2 60 -4 7 -12 45 -14 45 -2 0 4
-5 13 -11 19 -8 8 -6 26 9 65 34 92 32 139 -7 179 -31 30 -73 37 -117 19z m80
-45 c15 -12 20 -27 19 -64 -1 -82 -56 -147 -108 -127 -46 17 -43 129 5 178 32
31 55 35 84 13z"/>
<path d="M609 1889 c-12 -23 -26 -72 -74 -254 -72 -275 -86 -337 -81 -350 8
-22 295 -22 357 0 58 21 107 69 120 120 14 50 -3 135 -31 160 -26 23 -25 42 0
50 12 4 33 25 48 47 34 52 37 133 6 175 -41 55 -77 67 -210 71 -120 4 -122 4
-135 -19z m219 -85 c27 -31 28 -67 2 -104 -32 -45 -134 -78 -146 -47 -6 17 31
154 47 174 17 20 69 8 97 -23z m-83 -268 c117 -49 32 -197 -105 -184 -24 2
-34 8 -33 18 3 27 38 155 46 168 11 16 50 15 92 -2z"/>
<path d="M1889 1881 c-38 -38 -44 -108 -12 -143 18 -20 87 -25 98 -8 4 7 -2 9
-19 4 -36 -9 -78 20 -74 49 3 19 8 22 45 19 73 -6 119 37 88 84 -24 36 -87 34
-126 -5z"/>
<path d="M2555 1636 c-50 -22 -85 -64 -85 -103 0 -36 6 -43 103 -131 41 -36
46 -61 19 -85 -37 -33 -92 -16 -92 29 0 51 -72 61 -78 11 -5 -40 19 -71 66
-85 55 -17 87 -15 131 8 48 24 76 77 66 126 -5 27 -20 46 -70 85 -48 37 -65
57 -65 75 0 45 83 45 94 0 12 -49 70 -38 64 13 -4 31 -59 71 -97 71 -14 -1
-39 -7 -56 -14z"/>
<path d="M1148 1626 c-58 -21 -84 -41 -120 -93 -29 -42 -33 -56 -33 -109 0
-68 13 -99 53 -129 60 -44 262 -10 262 44 0 26 -11 26 -60 1 -68 -35 -128 -21
-155 35 -19 40 -19 40 1 59 10 11 34 16 74 16 97 0 170 46 170 106 0 53 -28
77 -96 81 -34 2 -75 -3 -96 -11z"/>
<path d="M1467 1625 c-8 -8 -32 -82 -52 -165 -34 -142 -36 -153 -21 -176 19
-27 20 -28 45 -14 21 11 32 37 61 145 24 91 31 101 79 121 40 17 51 29 51 61
0 31 -16 37 -61 23 -34 -12 -41 -11 -57 3 -23 21 -27 21 -45 2z"/>
<path d="M1703 1632 c-17 -10 -36 -79 -64 -224 -18 -96 -20 -120 -9 -133 35
-42 68 2 99 129 21 88 27 100 53 115 55 30 78 52 78 76 0 33 -13 38 -61 24
-36 -11 -42 -11 -51 4 -10 18 -26 21 -45 9z"/>
<path d="M2205 1633 c-35 -8 -111 -64 -135 -101 -34 -48 -40 -153 -12 -198 23
-36 77 -64 124 -64 77 0 178 49 178 87 0 19 -13 16 -66 -12 -54 -29 -74 -31
-113 -11 -24 13 -51 52 -51 76 0 22 34 40 78 40 99 0 167 37 178 97 5 27 1 37
-24 63 -27 26 -37 30 -84 29 -29 -1 -62 -3 -73 -6z"/>
<path d="M1932 1510 c-41 -25 -58 -64 -67 -157 -6 -65 -5 -72 13 -82 30 -16
57 -14 82 7 l22 17 -21 19 c-25 23 -26 36 -5 115 8 34 14 70 12 81 -3 20 -3
20 -36 0z"/>
</g>
</svg>
